<svg viewBox="0 0 1024 1024">
  <path fill="currentColor" d="M512 275.456c-131.072 0-236.544 106.496-236.544 236.544s105.472 236.544 236.544 236.544c130.048 0 235.52-106.496 235.52-236.544s-105.472-236.544-235.52-236.544zM512 692.224c-99.328 0-180.224-80.896-180.224-180.224s80.896-180.224 180.224-180.224c99.328 0 179.2 80.896 179.2 180.224s-79.872 180.224-179.2 180.224zM787.456 166.912c-18.432 0-35.84 7.168-48.128 20.48-13.312 13.312-20.48 29.696-20.48 48.128s7.168 35.84 20.48 48.128c13.312 13.312 29.696 20.48 48.128 20.48s35.84-7.168 48.128-20.48c12.288-12.288 20.48-29.696 20.48-48.128v-1.024c0-17.408-8.192-34.816-20.48-47.104-10.24-14.336-29.696-20.48-48.128-20.48zM779.264 10.24h-534.528c-129.024 0-234.496 105.472-234.496 234.496v535.552c0 128 105.472 233.472 234.496 233.472h535.552c128 0 233.472-105.472 233.472-234.496v-534.528c0-129.024-105.472-234.496-234.496-234.496zM957.44 779.264c0 98.304-79.872 178.176-178.176 178.176h-534.528c-98.304 0-178.176-79.872-178.176-178.176v-534.528c0-98.304 79.872-178.176 178.176-178.176h535.552c98.304 0 178.176 79.872 178.176 178.176v534.528z"></path>
</svg>
