<svg viewBox="0 0 1317 1024">
  <path fill="currentColor" d="M846 742a582 582 0 00-408-40 24 24 0 1011 47c125-34 257-19 376 37 3 1 6 3 11 3 10 0 18-5 21-13 6-14 1-29-11-34zm54-187a739 739 0 00-482-49 24 24 0 1012 46 697 697 0 01450 46c2 2 6 2 9 2 9 0 17-5 22-14 7-10 2-24-11-31zm58-195a860 860 0 00-557-61c-13 3-21 16-19 29 3 13 16 21 28 19a811 811 0 01526 58l10 1c10 0 18-4 23-14 5-11 0-26-11-32zM659 0a511 511 0 10-2 1023A511 511 0 00659 0zm0 976a464 464 0 110-929 464 464 0 010 929z"></path>
</svg>
