<svg xmlns="http://www.w3.org/2000/svg" height="373" width="1571"><path fill="#fff" d="M1480.75 112l-183.06 337-13.69 26-26.31-47s-43.2-84-67.69-124c24.91-3.17 51.52-13.32 68.91-32 22.07-23.7 29.3-62.2 15.78-92-5.36-11.8-14.73-22.37-24.69-30.54-33.9-27.8-78.38-29.46-120-29.46h-53v364h9V307s45.55 1.45 68-.09c6.36-.43 12.61-.71 19-.95 2.52-.1 7.37-.02 7.37-.02L1271.69 471l7.02 12.9 12.29.1h392zm-703.46 7.6c-16.17.06-32.33.4-48.29.4v364c77.92 0 160.58 2.7 226-47.24 62.92-48.02 87.16-137.81 51.19-209.76-18.67-37.35-49.85-65.68-87.19-83.74-44.42-21.5-93.17-23.83-141.7-23.65zM113 120v8h161v356h9V128h161v356h227v-8H452V304h177v-7H452V128h219v-8zm1020.57 7.25c35.2-.13 70.35 2.75 100.43 22.59 14.99 9.88 27.77 23.36 34.55 40.16 9.65 23.92 2.6 54.77-13.85 74-10.18 11.9-24.25 20.12-38.7 25.8-22.5 8.84-46.22 9.2-70 9.2h-60V128c15.55 0 31.57-.68 47.57-.75zm-339.99.16c41-.01 82 2.79 119.42 20.85 35.5 17.13 64.75 41.72 83.7 76.74 35.57 65.79 17.61 155.45-40.7 202.2-39.49 31.64-88.27 45.3-138 48.71-26.4 1.8-53.53.09-80 .09V128c18.3 0 36.94-.59 55.58-.6zM1481 131l187 345h-374z" style="transform: translate(-112px, -119px);"/></svg>
